# xmcd
#
# Track frame offsets:
#	150
#	18970
#	33367
#	45809
#	60459
#	77352
#	95272
#	113679
#	131950
#	152265
#	168961
#	188173
#	204336
#	218851
#
# Disc length: 3101 seconds
#
# Revision: 0
# Processed by: cddbd v1.5.2PL0 Copyright (c) Steve Scherf et al.
# Submitted via: dBpowerAMP V4.0
#
DISCID=9f0c1b0e
DTITLE=Contramarca - Marcas Deste Chão
DYEAR=2000
DGENRE=Fandango
TTITLE0=Embalo do Contramarca
TTITLE1=Balseiro do Uruguay
TTITLE2=Casa de Gaúcho
TTITLE3=Paixão Antiga
TTITLE4=Bolicho de Campanha
TTITLE5=Peão de Fazenda
TTITLE6=Fandango em Fazenda Guerreiro
TTITLE7=Rancho de Ramada
TTITLE8=Dos Bailes da Minha Terra
TTITLE9=Sonhando Contigo
TTITLE10=Galope de Liberdade
TTITLE11=Saudosa Querência
TTITLE12=Lugar de Respeito
TTITLE13=Orgulho de Gaúcho
EXTD=Grupo: Contramarca\nAlbum: Marcas Deste Chão\nPrimeiro Album do grupo de músicas Fandangueira Contramarca.\nMichael (Tata) - Acordeon, Voz solo e Vocal;\nMauro (Maurinho) - Bateria e Vocal;\nMárcio (Pilo) - Guitarra, Violão, Voz solo e Vocal;\nRica
EXTD=rdo (Boneco) - Contrabaixo, Voz solo e Vocal
EXTT0=
EXTT1=
EXTT2=
EXTT3=
EXTT4=
EXTT5=
EXTT6=
EXTT7=
EXTT8=
EXTT9=
EXTT10=
EXTT11=
EXTT12=
EXTT13=
PLAYORDER=
